<svg width="16" height="17" viewBox="0 0 16 17" fill="none" xmlns="http://www.w3.org/2000/svg">
<g id=" moon">
<path id="Vector" d="M8 2.5C7.20435 3.29565 6.75736 4.37478 6.75736 5.5C6.75736 6.62522 7.20435 7.70435 8 8.5C8.79565 9.29565 9.87478 9.74264 11 9.74264C12.1252 9.74264 13.2044 9.29565 14 8.5C14 9.68669 13.6481 10.8467 12.9888 11.8334C12.3295 12.8201 11.3925 13.5892 10.2961 14.0433C9.19975 14.4974 7.99335 14.6162 6.82946 14.3847C5.66558 14.1532 4.59648 13.5818 3.75736 12.7426C2.91825 11.9035 2.3468 10.8344 2.11529 9.67054C1.88378 8.50666 2.0026 7.30026 2.45673 6.2039C2.91085 5.10754 3.67989 4.17047 4.66658 3.51118C5.65328 2.85189 6.81331 2.5 8 2.5Z" stroke="#18181B" stroke-linecap="round" stroke-linejoin="round"/>
</g>
</svg>
